<mxfile host="app.diagrams.net" modified="2023-08-29T11:45:41.122Z" agent="Mozilla/5.0 (Windows NT 10.0; Win64; x64) AppleWebKit/537.36 (KHTML, like Gecko) Chrome/116.0.0.0 Safari/537.36" etag="OSXcpcMMEXPa00nNUfJi" version="21.6.9" type="device">
  <diagram name="Página-1" id="_Zy_5fOzX78jPmo2ztNM">
    <mxGraphModel dx="910" dy="506" grid="1" gridSize="10" guides="1" tooltips="1" connect="1" arrows="1" fold="1" page="1" pageScale="1" pageWidth="827" pageHeight="1169" math="0" shadow="0">
      <root>
        <mxCell id="0" />
        <mxCell id="1" parent="0" />
        <mxCell id="VxX9N7oNmmJ3D32VOoRW-5" value="Arara" style="swimlane;fontStyle=1;align=center;verticalAlign=top;childLayout=stackLayout;horizontal=1;startSize=26;horizontalStack=0;resizeParent=1;resizeParentMax=0;resizeLast=0;collapsible=1;marginBottom=0;whiteSpace=wrap;html=1;" vertex="1" parent="1">
          <mxGeometry x="290" y="80" width="160" height="210" as="geometry" />
        </mxCell>
        <mxCell id="VxX9N7oNmmJ3D32VOoRW-6" value="+ cor: string&lt;br&gt;+ alimentação: string&lt;br&gt;+ tamanho: dec&lt;br&gt;+ espécie: string&lt;br&gt;+ peso : dec&lt;br&gt;+ som: string&lt;br&gt;+ habitat: string" style="text;strokeColor=none;fillColor=none;align=left;verticalAlign=top;spacingLeft=4;spacingRight=4;overflow=hidden;rotatable=0;points=[[0,0.5],[1,0.5]];portConstraint=eastwest;whiteSpace=wrap;html=1;" vertex="1" parent="VxX9N7oNmmJ3D32VOoRW-5">
          <mxGeometry y="26" width="160" height="114" as="geometry" />
        </mxCell>
        <mxCell id="VxX9N7oNmmJ3D32VOoRW-7" value="" style="line;strokeWidth=1;fillColor=none;align=left;verticalAlign=middle;spacingTop=-1;spacingLeft=3;spacingRight=3;rotatable=0;labelPosition=right;points=[];portConstraint=eastwest;strokeColor=inherit;" vertex="1" parent="VxX9N7oNmmJ3D32VOoRW-5">
          <mxGeometry y="140" width="160" height="8" as="geometry" />
        </mxCell>
        <mxCell id="VxX9N7oNmmJ3D32VOoRW-8" value="+Voar():void&lt;br&gt;+Comer():void&lt;br&gt;+Tamarelar():void" style="text;strokeColor=none;fillColor=none;align=left;verticalAlign=top;spacingLeft=4;spacingRight=4;overflow=hidden;rotatable=0;points=[[0,0.5],[1,0.5]];portConstraint=eastwest;whiteSpace=wrap;html=1;" vertex="1" parent="VxX9N7oNmmJ3D32VOoRW-5">
          <mxGeometry y="148" width="160" height="62" as="geometry" />
        </mxCell>
      </root>
    </mxGraphModel>
  </diagram>
</mxfile>
